<svg width="230" height="52" viewBox="0 0 230 52" fill="none" xmlns="http://www.w3.org/2000/svg">
<path fill-rule="evenodd" clip-rule="evenodd" d="M181.693 17.2129C181.693 14.5386 181.531 12.7558 179.783 12.7558C178.983 12.7558 178.597 12.9176 177.901 13.1476C178.519 22.1767 176.476 30.1311 173.985 30.1311C170.72 30.1311 172.348 10.7753 165.434 10.7753C159.052 10.7753 158.132 26.2276 157.409 26.2276C156.917 26.2276 156.842 22.1695 156.868 19.0729C157.136 17.592 157.284 16.2585 157.284 15.2467C157.284 13.809 156.694 11.3234 153.429 12.5653C153.542 23.6162 151.329 30.291 148.837 30.291C145.187 30.291 145.145 20.2734 145.145 17.5148C145.145 14.819 145.341 11.2174 141.333 12.4951C140.737 22.1336 138.208 29.4068 136.616 29.4068C134.242 29.4068 134.72 12.7558 129.587 12.7558C124.968 12.7558 123.543 28.5298 122.581 28.5298C120.862 28.5298 123.123 10.7753 116.453 10.7753C112.958 10.7753 111.567 16.7006 110.197 23.3341C109.931 24.619 109.658 24.6622 109.608 23.209C109.573 21.9743 109.566 20.7306 109.58 19.496C111.257 12.8265 109.208 10.3627 106.119 12.1383C107.116 24.4455 101.464 30.4607 97.1329 30.4607C95.5676 30.4607 94.3311 29.794 93.4127 28.7408C98.6066 25.5543 100.916 21.8971 100.916 18.3224C100.916 14.4548 98.6911 12.2227 94.9978 12.2227C89.8453 12.2227 86.9607 17.5299 86.9607 22.0445C86.9607 24.4724 87.4172 26.5375 88.1612 28.2357C86.3911 29.0787 84.7214 29.8084 83.1686 30.5165C83.0277 25.8761 82.5091 21.0057 82.1101 16.5055C79.364 15.7471 78.5642 17.0662 78.354 19.5085C77.8616 25.0834 75.7984 28.5449 73.9724 28.5449C72.603 28.5449 71.7619 26.8735 71.663 25.0978C71.1508 16.1604 78.4025 13.6748 82.2 14.9743C82.9872 13.0009 82.1224 11.5829 78.6972 11.5829C74.5475 11.5829 71.4456 14.1044 69.1703 17.3394C67.6552 19.496 65.8994 21.0254 63.5684 22.8729C63.6316 22.3464 63.6604 21.8125 63.6604 21.286C63.6604 14.9886 60.2474 12.2227 56.9909 12.2227C54.2951 12.2227 52.5968 13.8366 51.6137 16.3222C51.3747 13.8294 50.8768 12.7565 49.4302 12.7565C48.8119 12.7565 47.9493 12.9308 47.0291 13.3801C47.4496 14.7711 47.6114 17.8534 47.6114 19.8752C47.6114 27.4486 45.4421 30.8471 43.3574 30.8471C40.9707 30.8471 40.5915 21.8611 40.3884 18.3655C40.0164 18.2246 39.6228 18.1481 39.2221 18.1481C37.06 18.1481 36.7796 21.0469 36.2459 23.714C35.6564 26.6704 33.958 30.3835 31.4366 30.3835C29.9143 30.3835 28.9582 28.9169 28.8396 26.2768C28.5934 20.9211 33.0522 14.5734 40.0236 16.5467C40.9347 14.4135 39.5024 12.7906 36.6107 12.7906C31.5138 12.7906 27.3012 16.6025 25.4627 21.1171C23.5954 25.2596 20.3299 31.3396 13.6892 31.3396C9.00037 31.3396 5.40598 27.2455 5.40598 18.6603C5.40598 11.2613 10.0732 4.23234 15.0515 4.23234C18.5327 4.23234 19.3415 7.65967 19.0323 10.8748C20.8367 12.3197 23.7913 10.9711 23.7913 7.35774C23.7913 4.86495 21.7694 0.637939 15.2348 0.637939C7.14739 0.637939 0 8.70564 0 19.2983C0 29.5621 5.20828 35.6277 12.5804 35.6277C17.2351 35.6277 21.622 32.975 24.6485 28.074C25.4141 32.364 28.3346 34.1684 30.5236 34.1684C34.0694 34.1684 36.3861 31.8715 37.6495 28.7696C38.4366 31.8787 40.0991 34.1827 42.8668 34.1827C44.8114 34.1827 46.3335 33.1924 47.4784 31.6127C47.0219 42.4228 46.454 49.3169 52.8412 47.9637C51.8528 44.8886 51.5365 39.2921 51.5365 34.2654C51.5365 20.5132 53.8045 15.986 56.6477 15.986C58.7109 15.986 59.3776 18.6099 59.3776 21.4118C59.3776 22.9143 59.2302 24.6413 58.8511 26.1924C55.3555 28.3975 52.5681 30.139 52.5681 32.3496C52.5681 34.0982 53.8674 34.2582 54.9907 34.2582C57.6721 34.2582 60.9016 31.6271 62.6844 26.6633C64.2427 25.7161 65.808 24.6341 67.3032 23.1604C67.2544 23.6655 67.2256 24.1705 67.2256 24.6899C67.2256 29.6179 69.3804 32.6029 72.8274 32.6029C75.5304 32.6029 77.5523 30.6854 78.9846 27.8152C79.0766 29.4705 79.132 30.9945 79.1535 32.3909C73.6775 34.9268 67.6191 37.4949 67.6191 44.6424C67.6191 48.3411 70.2862 51.1213 73.7619 51.1213C81.3928 51.1213 83.1344 43.0698 83.2044 33.7119C85.69 32.6371 87.5357 31.8086 89.6708 30.7482C91.495 33.0378 93.9804 34.1827 96.2557 34.1827C100.558 34.1827 103.795 31.9003 106.392 27.2743C106.848 30.7913 107.761 34.1827 109.636 34.1827C113.047 34.1827 113.742 16.3365 116.276 16.3365C118.221 16.3365 116.629 35.6421 121.76 35.6421C126.154 35.6421 126.975 18.6531 129.118 18.6531C130.634 18.6531 130.746 34.1827 135.534 34.1827C137.886 34.1827 140.442 31.3521 141.718 25.4268C142.321 29.3734 144.309 34.1827 148.198 34.1827C150.466 34.1827 152.418 31.8859 153.926 28.8396C154.341 31.9775 155.225 34.1827 156.945 34.1827C161.417 34.1827 161.269 16.3778 164.808 16.3778C167.567 16.3778 166.719 34.1827 173.289 34.1827C176.413 34.1827 177.894 31.521 178.779 28.1729C179.985 33.0936 181.944 34.1827 183.546 34.1827C184.563 34.1827 185.336 33.8233 186.348 32.6228C181.263 30.4194 181.693 22.3941 181.693 17.2129ZM74.0854 47.7947C72.5058 47.7947 71.67 46.2923 71.67 44.5993C71.67 40.029 75.0254 37.6082 79.1535 35.5234C78.9702 45.5051 76.6465 47.7947 74.0854 47.7947ZM94.613 15.4308C96.1497 15.4308 97.0268 16.8415 96.8722 18.8706C96.6978 21.2501 94.9636 23.9818 91.9443 26.1222C90.3717 21.6436 91.5453 15.4308 94.613 15.4308ZM143.305 8.67688C144.766 8.628 145.79 7.37212 145.797 5.87685C145.812 4.38158 144.793 3.20075 143.326 3.25653C141.86 3.30685 140.666 4.56302 140.659 6.05829C140.645 7.55356 141.838 8.72534 143.305 8.67688ZM179.727 9.4353C181.06 9.38642 182.149 8.19337 182.149 6.76826C182.149 5.34301 181.082 4.22702 179.748 4.26828C178.413 4.31717 177.326 5.51741 177.318 6.94251C177.304 8.36777 178.393 9.48375 179.727 9.4353Z" fill="#0070AD"/>
<path fill-rule="evenodd" clip-rule="evenodd" d="M220.29 30.593C225.317 30.593 229.198 26.5008 229.249 21.6429C228.897 19.5222 228.152 15.599 222.657 15.599C216.632 15.599 214.639 24.008 209.738 29.4356C209.345 32.5178 206.424 35.2765 202.781 35.7401C203.673 36.673 205.661 37.1798 208.033 37.1798C212.371 37.1798 217.623 35.8731 220.374 33.1558C216.703 33.2061 214.345 30.8464 214.113 27.5827C215.903 29.7519 217.925 30.593 220.29 30.593Z" fill="#12ABDB"/>
<path d="M222.304 7.08269C226.447 10.882 229.128 15.641 229.241 21.286L229.248 21.6436C228.896 19.5229 228.152 15.6069 222.649 15.6069C216.632 15.6069 214.639 24.0087 209.738 29.4363C208.187 31.1419 206.327 32.5454 204.059 33.2894C201.51 34.1468 198.969 34.0982 196.421 33.1368C192.034 31.3593 189.043 26.9292 189.043 22.199C189.043 10.0876 205.737 5.77792 210.559 0L210.597 0.0150271C210.901 0.136015 211.211 0.259315 211.508 0.386326C215.424 2.02897 219.159 4.21263 222.304 7.08269Z" fill="#0070AD"/>
</svg>
